<mxfile host="app.diagrams.net" modified="2021-09-28T15:05:47.556Z" agent="5.0 (Macintosh; Intel Mac OS X 10_15_7) AppleWebKit/537.36 (KHTML, like Gecko) Chrome/93.0.4577.82 Safari/537.36" etag="U3yPDItXc1Qs8_bJix0v" version="15.0.6" type="github">
  <diagram id="OkYW7q5TAKTJVP3iKfvm" name="Page-1">
    <mxGraphModel dx="946" dy="588" grid="1" gridSize="10" guides="1" tooltips="1" connect="1" arrows="1" fold="1" page="1" pageScale="1" pageWidth="850" pageHeight="1100" math="0" shadow="0">
      <root>
        <mxCell id="0" />
        <mxCell id="1" parent="0" />
        <mxCell id="yipoVIQxK6Yd8bYeuS3V-12" style="edgeStyle=orthogonalEdgeStyle;rounded=0;orthogonalLoop=1;jettySize=auto;html=1;endArrow=none;endFill=0;" edge="1" parent="1" source="yipoVIQxK6Yd8bYeuS3V-1" target="yipoVIQxK6Yd8bYeuS3V-8">
          <mxGeometry relative="1" as="geometry" />
        </mxCell>
        <mxCell id="yipoVIQxK6Yd8bYeuS3V-13" style="edgeStyle=orthogonalEdgeStyle;rounded=0;orthogonalLoop=1;jettySize=auto;html=1;exitX=1;exitY=0.5;exitDx=0;exitDy=0;entryX=0.5;entryY=0;entryDx=0;entryDy=0;endArrow=none;endFill=0;" edge="1" parent="1" source="yipoVIQxK6Yd8bYeuS3V-1" target="yipoVIQxK6Yd8bYeuS3V-4">
          <mxGeometry relative="1" as="geometry" />
        </mxCell>
        <mxCell id="yipoVIQxK6Yd8bYeuS3V-1" value="1" style="ellipse;whiteSpace=wrap;html=1;aspect=fixed;" vertex="1" parent="1">
          <mxGeometry x="547.5" y="130" width="50" height="50" as="geometry" />
        </mxCell>
        <mxCell id="yipoVIQxK6Yd8bYeuS3V-4" value=".69" style="rounded=0;whiteSpace=wrap;html=1;" vertex="1" parent="1">
          <mxGeometry x="620" y="220" width="85" height="30" as="geometry" />
        </mxCell>
        <mxCell id="yipoVIQxK6Yd8bYeuS3V-5" value="&quot;&quot;" style="rounded=0;whiteSpace=wrap;html=1;" vertex="1" parent="1">
          <mxGeometry x="620" y="250" width="85" height="30" as="geometry" />
        </mxCell>
        <mxCell id="yipoVIQxK6Yd8bYeuS3V-7" value="1" style="text;html=1;align=center;verticalAlign=middle;resizable=0;points=[];autosize=1;strokeColor=none;fillColor=none;" vertex="1" parent="1">
          <mxGeometry x="640" y="130" width="20" height="20" as="geometry" />
        </mxCell>
        <mxCell id="yipoVIQxK6Yd8bYeuS3V-11" style="edgeStyle=orthogonalEdgeStyle;rounded=0;orthogonalLoop=1;jettySize=auto;html=1;endArrow=none;endFill=0;" edge="1" parent="1" source="yipoVIQxK6Yd8bYeuS3V-8">
          <mxGeometry relative="1" as="geometry">
            <mxPoint x="530" y="290" as="targetPoint" />
          </mxGeometry>
        </mxCell>
        <mxCell id="yipoVIQxK6Yd8bYeuS3V-17" style="edgeStyle=orthogonalEdgeStyle;rounded=0;orthogonalLoop=1;jettySize=auto;html=1;entryX=0.5;entryY=0;entryDx=0;entryDy=0;endArrow=none;endFill=0;" edge="1" parent="1" source="yipoVIQxK6Yd8bYeuS3V-8" target="yipoVIQxK6Yd8bYeuS3V-16">
          <mxGeometry relative="1" as="geometry" />
        </mxCell>
        <mxCell id="yipoVIQxK6Yd8bYeuS3V-8" value=".31" style="ellipse;whiteSpace=wrap;html=1;aspect=fixed;" vertex="1" parent="1">
          <mxGeometry x="450" y="220" width="50" height="50" as="geometry" />
        </mxCell>
        <mxCell id="yipoVIQxK6Yd8bYeuS3V-9" value=".16" style="rounded=0;whiteSpace=wrap;html=1;" vertex="1" parent="1">
          <mxGeometry x="490" y="290" width="85" height="30" as="geometry" />
        </mxCell>
        <mxCell id="yipoVIQxK6Yd8bYeuS3V-10" value="E" style="rounded=0;whiteSpace=wrap;html=1;" vertex="1" parent="1">
          <mxGeometry x="490" y="320" width="85" height="30" as="geometry" />
        </mxCell>
        <mxCell id="yipoVIQxK6Yd8bYeuS3V-14" value="0" style="text;html=1;align=center;verticalAlign=middle;resizable=0;points=[];autosize=1;strokeColor=none;fillColor=none;" vertex="1" parent="1">
          <mxGeometry x="490" y="130" width="20" height="20" as="geometry" />
        </mxCell>
        <mxCell id="yipoVIQxK6Yd8bYeuS3V-15" value="1" style="text;html=1;align=center;verticalAlign=middle;resizable=0;points=[];autosize=1;strokeColor=none;fillColor=none;" vertex="1" parent="1">
          <mxGeometry x="510" y="220" width="20" height="20" as="geometry" />
        </mxCell>
        <mxCell id="yipoVIQxK6Yd8bYeuS3V-20" style="edgeStyle=orthogonalEdgeStyle;rounded=0;orthogonalLoop=1;jettySize=auto;html=1;entryX=0.5;entryY=0;entryDx=0;entryDy=0;endArrow=none;endFill=0;" edge="1" parent="1" source="yipoVIQxK6Yd8bYeuS3V-16" target="yipoVIQxK6Yd8bYeuS3V-18">
          <mxGeometry relative="1" as="geometry">
            <Array as="points">
              <mxPoint x="458" y="325" />
            </Array>
          </mxGeometry>
        </mxCell>
        <mxCell id="yipoVIQxK6Yd8bYeuS3V-24" style="edgeStyle=orthogonalEdgeStyle;rounded=0;orthogonalLoop=1;jettySize=auto;html=1;entryX=0.5;entryY=0;entryDx=0;entryDy=0;endArrow=none;endFill=0;" edge="1" parent="1" source="yipoVIQxK6Yd8bYeuS3V-16" target="yipoVIQxK6Yd8bYeuS3V-23">
          <mxGeometry relative="1" as="geometry" />
        </mxCell>
        <mxCell id="yipoVIQxK6Yd8bYeuS3V-16" value=".15" style="ellipse;whiteSpace=wrap;html=1;aspect=fixed;" vertex="1" parent="1">
          <mxGeometry x="370" y="300" width="50" height="50" as="geometry" />
        </mxCell>
        <mxCell id="yipoVIQxK6Yd8bYeuS3V-18" value=".8" style="rounded=0;whiteSpace=wrap;html=1;" vertex="1" parent="1">
          <mxGeometry x="415" y="370" width="85" height="30" as="geometry" />
        </mxCell>
        <mxCell id="yipoVIQxK6Yd8bYeuS3V-19" value="O" style="rounded=0;whiteSpace=wrap;html=1;" vertex="1" parent="1">
          <mxGeometry x="415" y="400" width="85" height="30" as="geometry" />
        </mxCell>
        <mxCell id="yipoVIQxK6Yd8bYeuS3V-21" value="1" style="text;html=1;align=center;verticalAlign=middle;resizable=0;points=[];autosize=1;strokeColor=none;fillColor=none;" vertex="1" parent="1">
          <mxGeometry x="440" y="300" width="20" height="20" as="geometry" />
        </mxCell>
        <mxCell id="yipoVIQxK6Yd8bYeuS3V-22" value="0" style="text;html=1;align=center;verticalAlign=middle;resizable=0;points=[];autosize=1;strokeColor=none;fillColor=none;" vertex="1" parent="1">
          <mxGeometry x="400" y="220" width="20" height="20" as="geometry" />
        </mxCell>
        <mxCell id="yipoVIQxK6Yd8bYeuS3V-28" style="edgeStyle=orthogonalEdgeStyle;rounded=0;orthogonalLoop=1;jettySize=auto;html=1;entryX=0.435;entryY=-0.067;entryDx=0;entryDy=0;entryPerimeter=0;endArrow=none;endFill=0;" edge="1" parent="1" source="yipoVIQxK6Yd8bYeuS3V-23" target="yipoVIQxK6Yd8bYeuS3V-26">
          <mxGeometry relative="1" as="geometry">
            <Array as="points">
              <mxPoint x="372" y="400" />
            </Array>
          </mxGeometry>
        </mxCell>
        <mxCell id="yipoVIQxK6Yd8bYeuS3V-31" style="edgeStyle=orthogonalEdgeStyle;rounded=0;orthogonalLoop=1;jettySize=auto;html=1;endArrow=none;endFill=0;" edge="1" parent="1" source="yipoVIQxK6Yd8bYeuS3V-23" target="yipoVIQxK6Yd8bYeuS3V-30">
          <mxGeometry relative="1" as="geometry" />
        </mxCell>
        <mxCell id="yipoVIQxK6Yd8bYeuS3V-23" value=".07" style="ellipse;whiteSpace=wrap;html=1;aspect=fixed;" vertex="1" parent="1">
          <mxGeometry x="310" y="380" width="50" height="50" as="geometry" />
        </mxCell>
        <mxCell id="yipoVIQxK6Yd8bYeuS3V-26" value=".04" style="rounded=0;whiteSpace=wrap;html=1;" vertex="1" parent="1">
          <mxGeometry x="335" y="460" width="85" height="30" as="geometry" />
        </mxCell>
        <mxCell id="yipoVIQxK6Yd8bYeuS3V-27" value="W" style="rounded=0;whiteSpace=wrap;html=1;" vertex="1" parent="1">
          <mxGeometry x="335" y="490" width="85" height="30" as="geometry" />
        </mxCell>
        <mxCell id="yipoVIQxK6Yd8bYeuS3V-36" style="edgeStyle=orthogonalEdgeStyle;rounded=0;orthogonalLoop=1;jettySize=auto;html=1;entryX=0.5;entryY=0;entryDx=0;entryDy=0;endArrow=none;endFill=0;" edge="1" parent="1" source="yipoVIQxK6Yd8bYeuS3V-30" target="yipoVIQxK6Yd8bYeuS3V-34">
          <mxGeometry relative="1" as="geometry" />
        </mxCell>
        <mxCell id="yipoVIQxK6Yd8bYeuS3V-37" style="edgeStyle=orthogonalEdgeStyle;rounded=0;orthogonalLoop=1;jettySize=auto;html=1;entryX=0.5;entryY=0;entryDx=0;entryDy=0;endArrow=none;endFill=0;" edge="1" parent="1" source="yipoVIQxK6Yd8bYeuS3V-30" target="yipoVIQxK6Yd8bYeuS3V-32">
          <mxGeometry relative="1" as="geometry">
            <Array as="points">
              <mxPoint x="313" y="495" />
            </Array>
          </mxGeometry>
        </mxCell>
        <mxCell id="yipoVIQxK6Yd8bYeuS3V-30" value=".03" style="ellipse;whiteSpace=wrap;html=1;aspect=fixed;" vertex="1" parent="1">
          <mxGeometry x="220" y="470" width="50" height="50" as="geometry" />
        </mxCell>
        <mxCell id="yipoVIQxK6Yd8bYeuS3V-32" value=".02" style="rounded=0;whiteSpace=wrap;html=1;" vertex="1" parent="1">
          <mxGeometry x="270" y="560" width="85" height="30" as="geometry" />
        </mxCell>
        <mxCell id="yipoVIQxK6Yd8bYeuS3V-33" value="D" style="rounded=0;whiteSpace=wrap;html=1;" vertex="1" parent="1">
          <mxGeometry x="270" y="590" width="85" height="30" as="geometry" />
        </mxCell>
        <mxCell id="yipoVIQxK6Yd8bYeuS3V-34" value=".01" style="rounded=0;whiteSpace=wrap;html=1;" vertex="1" parent="1">
          <mxGeometry x="120" y="560" width="85" height="30" as="geometry" />
        </mxCell>
        <mxCell id="yipoVIQxK6Yd8bYeuS3V-35" value="G" style="rounded=0;whiteSpace=wrap;html=1;" vertex="1" parent="1">
          <mxGeometry x="120" y="590" width="85" height="30" as="geometry" />
        </mxCell>
        <mxCell id="yipoVIQxK6Yd8bYeuS3V-38" value="1" style="text;html=1;align=center;verticalAlign=middle;resizable=0;points=[];autosize=1;strokeColor=none;fillColor=none;" vertex="1" parent="1">
          <mxGeometry x="370" y="390" width="20" height="20" as="geometry" />
        </mxCell>
        <mxCell id="yipoVIQxK6Yd8bYeuS3V-39" value="1" style="text;html=1;align=center;verticalAlign=middle;resizable=0;points=[];autosize=1;strokeColor=none;fillColor=none;" vertex="1" parent="1">
          <mxGeometry x="290" y="470" width="20" height="20" as="geometry" />
        </mxCell>
        <mxCell id="yipoVIQxK6Yd8bYeuS3V-40" value="0" style="text;html=1;align=center;verticalAlign=middle;resizable=0;points=[];autosize=1;strokeColor=none;fillColor=none;" vertex="1" parent="1">
          <mxGeometry x="180" y="470" width="20" height="20" as="geometry" />
        </mxCell>
        <mxCell id="yipoVIQxK6Yd8bYeuS3V-41" value="0" style="text;html=1;align=center;verticalAlign=middle;resizable=0;points=[];autosize=1;strokeColor=none;fillColor=none;" vertex="1" parent="1">
          <mxGeometry x="240" y="380" width="20" height="20" as="geometry" />
        </mxCell>
        <mxCell id="yipoVIQxK6Yd8bYeuS3V-42" value="0" style="text;html=1;align=center;verticalAlign=middle;resizable=0;points=[];autosize=1;strokeColor=none;fillColor=none;" vertex="1" parent="1">
          <mxGeometry x="330" y="300" width="20" height="20" as="geometry" />
        </mxCell>
        <mxCell id="yipoVIQxK6Yd8bYeuS3V-43" value="W O W D O G E" style="text;html=1;align=center;verticalAlign=middle;resizable=0;points=[];autosize=1;strokeColor=none;fillColor=none;" vertex="1" parent="1">
          <mxGeometry x="550" y="520" width="100" height="20" as="geometry" />
        </mxCell>
        <mxCell id="yipoVIQxK6Yd8bYeuS3V-45" value="&lt;span style=&quot;color: rgba(0 , 0 , 0 , 0.87) ; font-family: &amp;#34;roboto&amp;#34; , sans-serif ; font-size: 16px ; letter-spacing: 0.5px ; text-align: left&quot;&gt;0001&amp;nbsp;&lt;/span&gt;&lt;span style=&quot;color: rgba(0 , 0 , 0 , 0.87) ; font-family: &amp;#34;roboto&amp;#34; , sans-serif ; font-size: 16px ; letter-spacing: 0.5px ; text-align: left&quot;&gt;001&amp;nbsp;&lt;/span&gt;&lt;span style=&quot;color: rgba(0 , 0 , 0 , 0.87) ; font-family: &amp;#34;roboto&amp;#34; , sans-serif ; font-size: 16px ; letter-spacing: 0.5px ; text-align: left&quot;&gt;0001&amp;nbsp;&lt;/span&gt;&lt;span style=&quot;color: rgba(0 , 0 , 0 , 0.87) ; font-family: &amp;#34;roboto&amp;#34; , sans-serif ; font-size: 16px ; letter-spacing: 0.5px ; text-align: left&quot;&gt;00001&amp;nbsp;&lt;/span&gt;&lt;span style=&quot;color: rgba(0 , 0 , 0 , 0.87) ; font-family: &amp;#34;roboto&amp;#34; , sans-serif ; font-size: 16px ; letter-spacing: 0.5px ; text-align: left&quot;&gt;001&amp;nbsp;&lt;/span&gt;&lt;span style=&quot;color: rgba(0 , 0 , 0 , 0.87) ; font-family: &amp;#34;roboto&amp;#34; , sans-serif ; font-size: 16px ; letter-spacing: 0.5px ; text-align: left&quot;&gt;00000&amp;nbsp;&lt;/span&gt;&lt;span style=&quot;color: rgba(0 , 0 , 0 , 0.87) ; font-family: &amp;#34;roboto&amp;#34; , sans-serif ; font-size: 16px ; letter-spacing: 0.5px ; text-align: left&quot;&gt;01&lt;/span&gt;" style="text;html=1;align=center;verticalAlign=middle;resizable=0;points=[];autosize=1;strokeColor=none;fillColor=none;" vertex="1" parent="1">
          <mxGeometry x="415" y="550" width="290" height="20" as="geometry" />
        </mxCell>
      </root>
    </mxGraphModel>
  </diagram>
</mxfile>
